<svg width="296" height="143" viewBox="0 0 296 143" fill="none" xmlns="http://www.w3.org/2000/svg">
<path d="M171.709 33.207H162.156V71.1031H171.709V33.207Z" fill="#E8815D"/>
<path d="M55.6175 62.8078C54.4378 63.1545 53.1255 63.3483 51.6535 63.3483C50.3276 63.3483 49.0527 63.1205 47.8289 62.6616C46.605 62.2026 45.5069 61.5805 44.5414 60.7884C43.5725 59.9997 42.7939 59.0545 42.2092 57.9599C41.6211 56.8652 41.2777 55.6549 41.1757 54.329H69.087C68.9714 49.2125 68.7164 45.6769 67.8257 43.2019C66.9316 40.7303 65.6975 38.6633 64.1166 37.0077C62.5358 35.3521 60.6626 34.101 58.497 33.2613C56.3314 32.4182 53.9721 32 51.4223 32C48.6686 32 46.1086 32.4726 43.7391 33.4143C41.3695 34.3594 39.3161 35.6818 37.5822 37.3919C35.8484 39.0985 34.4852 41.1655 33.4925 43.5861C32.4964 46.0066 32 48.6958 32 51.6535C32 54.6112 32.4964 57.3513 33.4925 59.7209C34.4852 62.0904 35.862 64.0928 37.6231 65.7247C39.3807 67.3565 41.4579 68.6178 43.8547 69.5085C46.2514 70.3992 48.876 70.848 51.7317 70.848C54.7846 70.848 57.4941 70.338 59.9079 69.3759C57.4567 68.1588 55.7535 65.7043 55.6209 62.8146L55.6175 62.8078ZM44.3476 41.3661C46.2582 39.7104 48.5903 38.8809 51.3441 38.8809C52.8229 38.8809 54.108 39.1223 55.2061 39.6085C56.3008 40.0946 57.2051 40.7439 57.9225 41.5599C58.6364 42.3758 59.1566 43.3175 59.4897 44.3884C59.8195 45.4593 59.9861 46.5812 59.9861 47.7541H41.1757C41.3797 45.1533 42.437 43.0251 44.3476 41.3695V41.3661Z" fill="#E8815D"/>
<path d="M63.3171 67.1459C65.9025 67.1459 67.9984 65.05 67.9984 62.4646C67.9984 59.8791 65.9025 57.7832 63.3171 57.7832C60.7317 57.7832 58.6357 59.8791 58.6357 62.4646C58.6357 65.05 60.7317 67.1459 63.3171 67.1459Z" fill="#E8815D"/>
<path d="M216.963 43.7764C216.096 41.4306 214.872 39.3942 213.291 37.6604C211.71 35.9265 209.823 34.5633 207.634 33.5706C205.441 32.5779 203.044 32.0781 200.447 32.0781C198.764 32.0781 197.248 32.2685 195.898 32.6527C194.545 33.0334 193.335 33.5196 192.267 34.1043C191.196 34.6891 190.292 35.3554 189.551 36.0931C188.81 36.8309 188.212 37.5584 187.753 38.2723H187.521V33.149H178.727V77.5759C180.018 76.607 181.606 76.012 183.347 76.012C185.087 76.012 186.624 76.5832 187.902 77.5249V64.9597H188.055C189.228 66.7955 190.897 68.2472 193.063 69.3181C195.229 70.389 197.612 70.9227 200.212 70.9227C203.017 70.9227 205.526 70.3992 207.746 69.3555C209.963 68.3118 211.85 66.9077 213.407 65.1501C214.96 63.3924 216.16 61.3289 217 58.9559C217.84 56.5863 218.261 54.0502 218.261 51.3474C218.261 48.6447 217.826 46.1221 216.963 43.7764ZM209.932 55.6276C209.497 57.0555 208.848 58.3304 207.984 59.4488C207.117 60.5707 206.019 61.4886 204.697 62.2026C203.371 62.9165 201.817 63.2735 200.032 63.2735C198.349 63.2735 196.847 62.9301 195.521 62.24C194.195 61.5532 193.06 60.6489 192.118 59.527C191.173 58.4051 190.462 57.1439 189.976 55.7398C189.49 54.3391 189.249 52.9249 189.249 51.497C189.249 50.0692 189.49 48.6447 189.976 47.2168C190.459 45.789 191.173 44.5141 192.118 43.3922C193.06 42.2737 194.195 41.3524 195.521 40.6385C196.847 39.9246 198.349 39.5676 200.032 39.5676C201.817 39.5676 203.371 39.9109 204.697 40.6011C206.022 41.2878 207.117 42.1955 207.984 43.314C208.851 44.4359 209.5 45.6972 209.932 47.0978C210.364 48.5019 210.581 49.9162 210.581 51.3406C210.581 52.7651 210.364 54.1963 209.932 55.6242V55.6276Z" fill="#E8815D"/>
<path d="M183.349 88.4271C185.935 88.4271 188.031 86.3312 188.031 83.7458C188.031 81.1604 185.935 79.0645 183.349 79.0645C180.764 79.0645 178.668 81.1604 178.668 83.7458C178.668 86.3312 180.764 88.4271 183.349 88.4271Z" fill="#E8815D"/>
<path d="M75.3055 43.7764C76.1724 41.4306 77.3963 39.3942 78.9771 37.6604C80.5579 35.9265 82.4448 34.5633 84.6342 33.5706C86.827 32.5779 89.2237 32.0781 91.8211 32.0781C93.5039 32.0781 95.0202 32.2685 96.3699 32.6527C97.7229 33.0334 98.9332 33.5196 100.001 34.1043C101.072 34.6891 101.976 35.3554 102.717 36.0931C103.458 36.8309 104.056 37.5584 104.515 38.2723H104.747V33.149H113.542V77.5759C112.25 76.607 110.662 76.012 108.921 76.012C107.181 76.012 105.644 76.5832 104.366 77.5249V64.9597H104.213C103.04 66.7955 101.371 68.2472 99.2051 69.3181C97.0395 70.389 94.6564 70.9227 92.0556 70.9227C89.2509 70.9227 86.742 70.3992 84.522 69.3555C82.3054 68.3118 80.4186 66.9077 78.8616 65.1501C77.3079 63.3924 76.1078 61.3289 75.2681 58.9559C74.4284 56.5863 74.0068 54.0502 74.0068 51.3474C74.0068 48.6447 74.442 46.1221 75.3055 43.7764ZM82.336 55.6276C82.7712 57.0555 83.4205 58.3304 84.284 59.4488C85.1509 60.5707 86.249 61.4886 87.5715 62.2026C88.8973 62.9165 90.451 63.2735 92.2358 63.2735C93.9186 63.2735 95.4213 62.9301 96.7472 62.24C98.073 61.5532 99.2085 60.6489 100.15 59.527C101.095 58.4051 101.806 57.1439 102.292 55.7398C102.778 54.3391 103.02 52.9249 103.02 51.497C103.02 50.0692 102.778 48.6447 102.292 47.2168C101.809 45.789 101.095 44.5141 100.15 43.3922C99.2085 42.2737 98.073 41.3524 96.7472 40.6385C95.4213 39.9246 93.9186 39.5676 92.2358 39.5676C90.451 39.5676 88.8973 39.9109 87.5715 40.6011C86.2456 41.2878 85.1509 42.1955 84.284 43.314C83.4171 44.4359 82.7678 45.6972 82.336 47.0978C81.9043 48.5019 81.6866 49.9162 81.6866 51.3406C81.6866 52.7651 81.9043 54.1963 82.336 55.6242V55.6276Z" fill="#E8815D"/>
<path d="M108.918 88.4281C111.503 88.4281 113.599 86.3322 113.599 83.7468C113.599 81.1613 111.503 79.0654 108.918 79.0654C106.332 79.0654 104.236 81.1613 104.236 83.7468C104.236 86.3322 106.332 88.4281 108.918 88.4281Z" fill="#E8815D"/>
<path d="M262.385 43.6983C261.519 41.3525 260.295 39.3161 258.714 37.5823C257.133 35.8484 255.246 34.4852 253.057 33.4925C250.864 32.4998 248.467 32 245.87 32C244.187 32 242.671 32.1904 241.321 32.5745C239.968 32.9553 238.758 33.4415 237.69 34.0262C236.619 34.6109 235.715 35.2773 234.974 36.015C234.233 36.7527 233.634 37.4803 233.176 38.1942H232.944V33.0709H224.149V77.4977C225.441 76.5288 227.029 75.9339 228.77 75.9339C230.51 75.9339 232.047 76.505 233.325 77.4467V64.8816H233.478C234.651 66.7174 236.32 68.1691 238.486 69.2399C240.651 70.3108 243.035 70.8446 245.635 70.8446C248.44 70.8446 250.949 70.321 253.169 69.2773C255.386 68.2336 257.272 66.8296 258.829 65.072C260.383 63.3143 261.583 61.2507 262.423 58.8778C263.263 56.5082 263.684 53.972 263.684 51.2693C263.684 48.5666 263.249 46.044 262.385 43.6983ZM255.355 55.5495C254.92 56.9773 254.27 58.2522 253.407 59.3707C252.54 60.4926 251.442 61.4105 250.12 62.1244C248.794 62.8384 247.24 63.1953 245.455 63.1953C243.772 63.1953 242.27 62.852 240.944 62.1618C239.618 61.4751 238.482 60.5708 237.541 59.4489C236.596 58.327 235.885 57.0657 235.399 55.6617C234.913 54.261 234.671 52.8468 234.671 51.4189C234.671 49.991 234.913 48.5666 235.399 47.1387C235.882 45.7109 236.596 44.436 237.541 43.3141C238.482 42.1956 239.618 41.2743 240.944 40.5604C242.27 39.8464 243.772 39.4895 245.455 39.4895C247.24 39.4895 248.794 39.8328 250.12 40.523C251.445 41.2097 252.54 42.1174 253.407 43.2359C254.274 44.3578 254.923 45.6191 255.355 47.0197C255.787 48.4238 256.004 49.8381 256.004 51.2625C256.004 52.687 255.787 54.1182 255.355 55.5461V55.5495Z" fill="#E8815D"/>
<path d="M228.772 88.349C231.358 88.349 233.454 86.2531 233.454 83.6677C233.454 81.0822 231.358 78.9863 228.772 78.9863C226.187 78.9863 224.091 81.0822 224.091 83.6677C224.091 86.2531 226.187 88.349 228.772 88.349Z" fill="#E8815D"/>
<path d="M155.139 33.207V70.6951H146.235V64.6811H146.079C145.246 66.5578 143.798 68.21 141.744 69.6413C139.687 71.0725 137.253 71.7898 134.442 71.7898C131.997 71.7898 129.9 71.3581 128.156 70.5014C126.412 69.6447 124.98 68.5092 123.862 67.1051C122.74 65.6976 121.921 64.0862 121.404 62.264C120.884 60.4418 120.622 58.5685 120.622 56.6409V33.2104H129.995V53.9858C129.995 55.0805 130.073 56.2228 130.226 57.4229C130.383 58.6229 130.719 59.7006 131.243 60.6627C131.766 61.6249 132.48 62.4204 133.391 63.0459C134.302 63.668 135.516 63.9842 137.022 63.9842C138.528 63.9842 139.766 63.685 140.891 63.0867C142.009 62.4883 142.921 61.72 143.624 60.7817C144.325 59.8434 144.858 58.7623 145.225 57.5418C145.467 56.7361 145.623 55.9236 145.705 55.1043V33.2138H155.142L155.139 33.207Z" fill="#E8815D"/>
<path d="M39.476 110.121H38.0686C37.8 110.121 37.6096 110.019 37.4872 109.811L35.7262 107.146C35.6616 107.047 35.5868 106.976 35.5086 106.932C35.4304 106.891 35.3114 106.867 35.1584 106.867H34.4921V110.117H32.9316V101.795H35.4882C36.0559 101.795 36.5455 101.853 36.9535 101.972C37.3614 102.087 37.6946 102.254 37.9564 102.465C38.2181 102.675 38.4085 102.927 38.5343 103.223C38.6567 103.515 38.7213 103.838 38.7213 104.192C38.7213 104.47 38.6804 104.736 38.5955 104.987C38.5105 105.235 38.3915 105.463 38.2352 105.667C38.0788 105.871 37.885 106.048 37.6538 106.201C37.4226 106.354 37.1609 106.476 36.8685 106.565C36.9671 106.622 37.0623 106.69 37.1473 106.769C37.2323 106.847 37.3104 106.939 37.3784 107.047L39.476 110.121ZM35.4644 105.759C35.7567 105.759 36.0151 105.722 36.2327 105.65C36.4503 105.579 36.6305 105.477 36.7699 105.348C36.9127 105.218 37.0146 105.065 37.086 104.889C37.154 104.712 37.1914 104.518 37.1914 104.307C37.1914 103.886 37.052 103.563 36.7699 103.335C36.4877 103.107 36.0627 102.995 35.4848 102.995H34.4887V105.756H35.461L35.4644 105.759Z" fill="#E8815D"/>
<path d="M44.8481 103.033V105.341H47.7819V106.531H44.8481V108.884H48.5707V110.121H43.2842V101.799H48.5707V103.03H44.8481V103.033Z" fill="#E8815D"/>
<path d="M59.9151 101.802V110.124H59.1161C58.9938 110.124 58.8884 110.104 58.8068 110.063C58.7252 110.022 58.6436 109.954 58.5654 109.859L54.19 104.311C54.2138 104.566 54.2241 104.797 54.2241 105.011V110.121H52.8506V101.798H53.6665C53.7311 101.798 53.7889 101.798 53.8365 101.809C53.8841 101.815 53.9283 101.826 53.9657 101.843C54.0031 101.859 54.037 101.883 54.0744 101.917C54.1084 101.951 54.1492 101.992 54.19 102.046L58.5824 107.615C58.5722 107.483 58.562 107.35 58.5552 107.217C58.5484 107.088 58.545 106.966 58.545 106.854V101.795H59.9185L59.9151 101.802Z" fill="#E8815D"/>
<path d="M70.5313 103.073H68.0053V110.124H66.4449V103.073H63.9189V101.802H70.5313V103.073Z" fill="#E8815D"/>
<path d="M81.4583 103.033V105.341H84.3923V106.531H81.4583V108.884H85.1809V110.121H79.8945V101.799H85.1809V103.03H81.4583V103.033Z" fill="#E8815D"/>
<path d="M96.6372 110.121H95.4303C95.2943 110.121 95.1855 110.087 95.1005 110.019C95.0155 109.951 94.9509 109.869 94.9101 109.767L94.2845 108.071H90.8135L90.1879 109.767C90.1573 109.856 90.0962 109.937 90.0078 110.009C89.9194 110.08 89.8071 110.117 89.678 110.117H88.4609L91.7586 101.795H93.3462L96.6372 110.117V110.121ZM93.8834 106.979L92.8635 104.212C92.8125 104.09 92.7615 103.944 92.7071 103.774C92.6527 103.604 92.5983 103.423 92.5439 103.226C92.4929 103.423 92.442 103.607 92.3876 103.777C92.3332 103.947 92.2821 104.096 92.2311 104.222L91.218 106.979H93.8834Z" fill="#E8815D"/>
<path d="M104.868 103.315C104.82 103.397 104.773 103.455 104.722 103.492C104.671 103.529 104.606 103.546 104.528 103.546C104.45 103.546 104.358 103.516 104.263 103.458C104.168 103.4 104.055 103.332 103.923 103.261C103.79 103.189 103.637 103.121 103.46 103.064C103.284 103.006 103.076 102.975 102.838 102.975C102.621 102.975 102.434 103.002 102.271 103.053C102.107 103.104 101.971 103.176 101.863 103.268C101.754 103.359 101.669 103.472 101.618 103.597C101.567 103.723 101.536 103.866 101.536 104.019C101.536 104.216 101.591 104.376 101.703 104.508C101.815 104.641 101.958 104.75 102.141 104.842C102.322 104.933 102.529 105.015 102.76 105.09C102.991 105.161 103.229 105.239 103.474 105.324C103.719 105.406 103.957 105.501 104.188 105.613C104.419 105.722 104.626 105.862 104.807 106.028C104.987 106.195 105.133 106.399 105.245 106.64C105.354 106.881 105.412 107.174 105.412 107.521C105.412 107.898 105.347 108.248 105.218 108.578C105.089 108.908 104.898 109.193 104.65 109.435C104.402 109.679 104.096 109.87 103.736 110.009C103.375 110.148 102.964 110.22 102.502 110.22C102.233 110.22 101.971 110.193 101.713 110.142C101.455 110.091 101.207 110.016 100.969 109.921C100.731 109.826 100.506 109.71 100.299 109.574C100.091 109.441 99.9044 109.292 99.7412 109.125L100.2 108.384C100.238 108.33 100.289 108.285 100.35 108.248C100.411 108.211 100.479 108.194 100.547 108.194C100.642 108.194 100.748 108.234 100.86 108.313C100.972 108.391 101.104 108.479 101.261 108.574C101.417 108.67 101.597 108.758 101.801 108.836C102.009 108.914 102.257 108.955 102.546 108.955C102.991 108.955 103.335 108.85 103.579 108.642C103.824 108.435 103.943 108.132 103.943 107.742C103.943 107.524 103.889 107.344 103.777 107.208C103.668 107.068 103.522 106.953 103.338 106.861C103.158 106.766 102.95 106.688 102.719 106.623C102.488 106.558 102.25 106.487 102.012 106.409C101.774 106.331 101.536 106.239 101.305 106.133C101.074 106.025 100.867 105.885 100.686 105.712C100.506 105.539 100.36 105.324 100.248 105.066C100.139 104.808 100.081 104.488 100.081 104.107C100.081 103.805 100.142 103.509 100.265 103.22C100.387 102.931 100.564 102.676 100.795 102.455C101.026 102.234 101.312 102.054 101.652 101.921C101.992 101.789 102.383 101.721 102.821 101.721C103.318 101.721 103.773 101.799 104.188 101.952C104.603 102.105 104.96 102.319 105.255 102.598L104.868 103.329V103.315Z" fill="#E8815D"/>
<path d="M113.072 106.901V110.124H111.518V106.901L108.462 101.802H109.835C109.971 101.802 110.077 101.836 110.158 101.9C110.237 101.965 110.305 102.047 110.359 102.149L111.889 104.926C111.977 105.093 112.055 105.246 112.123 105.392C112.191 105.538 112.253 105.684 112.307 105.83C112.358 105.684 112.416 105.538 112.48 105.392C112.545 105.246 112.623 105.089 112.708 104.926L114.231 102.149C114.272 102.064 114.337 101.985 114.422 101.914C114.507 101.843 114.615 101.805 114.748 101.805H116.128L113.072 106.905V106.901Z" fill="#E8815D"/>
<path d="M143.098 110.121H141.691C141.422 110.121 141.232 110.019 141.109 109.811L139.348 107.146C139.284 107.047 139.209 106.976 139.131 106.932C139.052 106.891 138.933 106.867 138.781 106.867H138.114V110.117H136.554V101.795H139.11C139.678 101.795 140.168 101.853 140.576 101.972C140.984 102.087 141.317 102.254 141.578 102.465C141.84 102.675 142.031 102.927 142.156 103.223C142.279 103.515 142.343 103.838 142.343 104.192C142.343 104.47 142.303 104.736 142.218 104.987C142.133 105.235 142.014 105.463 141.857 105.667C141.701 105.871 141.507 106.048 141.276 106.201C141.045 106.354 140.783 106.476 140.491 106.565C140.589 106.622 140.684 106.69 140.769 106.769C140.854 106.847 140.933 106.939 141.001 107.047L143.098 110.121ZM139.086 105.759C139.379 105.759 139.637 105.722 139.855 105.65C140.072 105.579 140.253 105.477 140.392 105.348C140.535 105.218 140.637 105.065 140.708 104.889C140.776 104.712 140.814 104.518 140.814 104.307C140.814 103.886 140.674 103.563 140.392 103.335C140.11 103.107 139.685 102.995 139.107 102.995H138.111V105.756H139.083L139.086 105.759Z" fill="#E8815D"/>
<path d="M148.469 103.033V105.341H151.403V106.531H148.469V108.884H152.192V110.121H146.905V101.799H152.192V103.03H148.469V103.033Z" fill="#E8815D"/>
<path d="M163.533 101.802V110.124H162.734C162.612 110.124 162.507 110.104 162.425 110.063C162.343 110.022 162.262 109.954 162.184 109.859L157.808 104.311C157.832 104.566 157.842 104.797 157.842 105.011V110.121H156.469V101.798H157.285C157.349 101.798 157.407 101.798 157.455 101.809C157.502 101.815 157.546 101.826 157.584 101.843C157.621 101.859 157.655 101.883 157.693 101.917C157.727 101.951 157.767 101.992 157.808 102.046L162.201 107.615C162.19 107.483 162.18 107.35 162.173 107.217C162.167 107.088 162.163 106.966 162.163 106.854V101.795H163.537L163.533 101.802Z" fill="#E8815D"/>
<path d="M174.153 103.073H171.627V110.124H170.067V103.073H167.541V101.802H174.153V103.073Z" fill="#E8815D"/>
<path d="M186.644 106.901V110.124H185.09V106.901L182.034 101.802H183.408C183.544 101.802 183.649 101.836 183.731 101.9C183.809 101.965 183.877 102.047 183.931 102.149L185.461 104.926C185.549 105.093 185.628 105.246 185.696 105.392C185.764 105.538 185.825 105.684 185.879 105.83C185.93 105.684 185.988 105.538 186.053 105.392C186.117 105.246 186.195 105.089 186.28 104.926L187.803 102.149C187.844 102.064 187.909 101.985 187.994 101.914C188.079 101.843 188.188 101.805 188.32 101.805H189.7L186.644 106.905V106.901Z" fill="#E8815D"/>
<path d="M200.96 105.963C200.96 106.571 200.858 107.139 200.654 107.659C200.45 108.18 200.164 108.628 199.794 109.009C199.423 109.39 198.978 109.686 198.454 109.9C197.931 110.114 197.353 110.219 196.713 110.219C196.074 110.219 195.503 110.114 194.98 109.9C194.456 109.686 194.011 109.39 193.637 109.009C193.263 108.628 192.974 108.18 192.77 107.659C192.566 107.139 192.464 106.575 192.464 105.963C192.464 105.351 192.566 104.787 192.77 104.27C192.974 103.753 193.263 103.301 193.637 102.92C194.011 102.539 194.456 102.244 194.98 102.03C195.5 101.815 196.078 101.71 196.713 101.71C197.138 101.71 197.54 101.758 197.914 101.856C198.288 101.955 198.631 102.091 198.947 102.271C199.26 102.451 199.542 102.665 199.79 102.92C200.038 103.175 200.252 103.461 200.426 103.774C200.599 104.09 200.732 104.43 200.824 104.797C200.915 105.164 200.96 105.552 200.96 105.96V105.963ZM199.365 105.963C199.365 105.507 199.304 105.096 199.178 104.736C199.056 104.372 198.879 104.066 198.651 103.811C198.423 103.556 198.145 103.366 197.818 103.23C197.492 103.097 197.125 103.029 196.713 103.029C196.302 103.029 195.935 103.097 195.609 103.23C195.282 103.366 195.003 103.556 194.772 103.811C194.541 104.066 194.364 104.372 194.242 104.736C194.119 105.099 194.058 105.507 194.058 105.963C194.058 106.419 194.119 106.83 194.242 107.19C194.364 107.554 194.541 107.86 194.772 108.112C195.003 108.363 195.279 108.557 195.609 108.689C195.935 108.825 196.302 108.89 196.713 108.89C197.125 108.89 197.492 108.822 197.818 108.689C198.145 108.557 198.423 108.363 198.651 108.112C198.879 107.86 199.056 107.554 199.178 107.19C199.301 106.826 199.365 106.419 199.365 105.963Z" fill="#E8815D"/>
<path d="M208.606 108.874C208.908 108.874 209.177 108.823 209.415 108.724C209.653 108.625 209.854 108.483 210.013 108.302C210.176 108.122 210.299 107.905 210.387 107.646C210.476 107.388 210.516 107.102 210.516 106.783V101.799H212.077V106.783C212.077 107.279 211.995 107.735 211.835 108.156C211.676 108.578 211.444 108.938 211.145 109.244C210.846 109.55 210.482 109.788 210.054 109.958C209.626 110.128 209.143 110.213 208.606 110.213C208.069 110.213 207.579 110.128 207.151 109.958C206.722 109.788 206.359 109.55 206.059 109.244C205.76 108.938 205.529 108.578 205.369 108.156C205.21 107.735 205.128 107.279 205.128 106.783V101.799H206.688V106.776C206.688 107.095 206.733 107.381 206.818 107.639C206.903 107.898 207.028 108.115 207.195 108.299C207.358 108.483 207.559 108.622 207.797 108.721C208.035 108.819 208.303 108.87 208.606 108.87V108.874Z" fill="#E8815D"/>
<path d="M223.283 110.121H221.875C221.607 110.121 221.416 110.019 221.294 109.811L219.533 107.146C219.468 107.047 219.393 106.976 219.315 106.932C219.237 106.891 219.118 106.867 218.965 106.867H218.299V110.117H216.738V101.795H219.295C219.863 101.795 220.352 101.853 220.76 101.972C221.168 102.087 221.501 102.254 221.763 102.465C222.025 102.675 222.215 102.927 222.341 103.223C222.463 103.515 222.528 103.838 222.528 104.192C222.528 104.47 222.487 104.736 222.402 104.987C222.317 105.235 222.198 105.463 222.042 105.667C221.885 105.871 221.692 106.048 221.46 106.201C221.229 106.354 220.967 106.476 220.675 106.565C220.774 106.622 220.869 106.69 220.954 106.769C221.039 106.847 221.117 106.939 221.185 107.047L223.283 110.121ZM219.271 105.759C219.563 105.759 219.822 105.722 220.039 105.65C220.257 105.579 220.437 105.477 220.577 105.348C220.719 105.218 220.821 105.065 220.893 104.889C220.961 104.712 220.998 104.518 220.998 104.307C220.998 103.886 220.859 103.563 220.577 103.335C220.294 103.107 219.869 102.995 219.291 102.995H218.295V105.756H219.268L219.271 105.759Z" fill="#E8815D"/>
<path d="M243.884 101.802L241.28 110.124H239.872L238.04 104.44C237.989 104.301 237.944 104.134 237.9 103.933C237.876 104.029 237.853 104.12 237.832 104.205C237.812 104.29 237.785 104.369 237.758 104.44L235.908 110.124H234.494L231.896 101.802H233.202C233.338 101.802 233.45 101.832 233.542 101.897C233.634 101.962 233.695 102.047 233.726 102.152L235.15 107.129C235.181 107.251 235.211 107.384 235.238 107.53C235.266 107.673 235.296 107.826 235.327 107.982C235.357 107.823 235.391 107.67 235.429 107.527C235.466 107.384 235.504 107.251 235.548 107.129L237.193 102.152C237.224 102.064 237.285 101.982 237.377 101.911C237.469 101.839 237.577 101.802 237.71 101.802H238.169C238.305 101.802 238.414 101.836 238.499 101.9C238.584 101.965 238.648 102.05 238.689 102.155L240.331 107.132C240.413 107.37 240.484 107.646 240.552 107.955C240.603 107.653 240.657 107.377 240.719 107.132L242.143 102.155C242.167 102.06 242.225 101.979 242.32 101.907C242.415 101.839 242.527 101.805 242.66 101.805H243.884V101.802Z" fill="#E8815D"/>
<path d="M254.444 110.121H253.237C253.101 110.121 252.992 110.087 252.907 110.019C252.822 109.951 252.758 109.869 252.717 109.767L252.091 108.071H248.62L247.995 109.767C247.964 109.856 247.903 109.937 247.814 110.009C247.726 110.08 247.614 110.117 247.485 110.117H246.268L249.565 101.795H251.153L254.444 110.117V110.121ZM251.69 106.979L250.67 104.212C250.619 104.09 250.568 103.944 250.514 103.774C250.459 103.604 250.405 103.423 250.351 103.226C250.3 103.423 250.249 103.607 250.194 103.777C250.14 103.947 250.089 104.096 250.038 104.222L249.025 106.979H251.69Z" fill="#E8815D"/>
<path d="M260.943 106.901V110.124H259.389V106.901L256.333 101.802H257.706C257.842 101.802 257.948 101.836 258.029 101.9C258.108 101.965 258.176 102.047 258.23 102.149L259.76 104.926C259.848 105.093 259.926 105.246 259.994 105.392C260.062 105.538 260.124 105.684 260.178 105.83C260.229 105.684 260.287 105.538 260.351 105.392C260.416 105.246 260.494 105.089 260.579 104.926L262.102 102.149C262.143 102.064 262.208 101.985 262.293 101.914C262.378 101.843 262.486 101.805 262.619 101.805H263.999L260.943 106.905V106.901Z" fill="#E8815D"/>
<path d="M125.002 107.465C125.77 107.465 126.392 106.843 126.392 106.075C126.392 105.307 125.77 104.685 125.002 104.685C124.234 104.685 123.611 105.307 123.611 106.075C123.611 106.843 124.234 107.465 125.002 107.465Z" fill="#E8815D"/>
<path d="M171.709 33.207H162.156V71.1031H171.709V33.207Z" fill="url(#paint0_linear_286_287)"/>
<path d="M55.6175 62.8078C54.4378 63.1545 53.1255 63.3483 51.6535 63.3483C50.3276 63.3483 49.0527 63.1205 47.8289 62.6616C46.605 62.2026 45.5069 61.5805 44.5414 60.7884C43.5725 59.9997 42.7939 59.0545 42.2092 57.9599C41.6211 56.8652 41.2777 55.6549 41.1757 54.329H69.087C68.9714 49.2125 68.7164 45.6769 67.8257 43.2019C66.9316 40.7303 65.6975 38.6633 64.1166 37.0077C62.5358 35.3521 60.6626 34.101 58.497 33.2613C56.3314 32.4182 53.9721 32 51.4223 32C48.6686 32 46.1086 32.4726 43.7391 33.4143C41.3695 34.3594 39.3161 35.6818 37.5822 37.3919C35.8484 39.0985 34.4852 41.1655 33.4925 43.5861C32.4964 46.0066 32 48.6958 32 51.6535C32 54.6112 32.4964 57.3513 33.4925 59.7209C34.4852 62.0904 35.862 64.0928 37.6231 65.7247C39.3807 67.3565 41.4579 68.6178 43.8547 69.5085C46.2514 70.3992 48.876 70.848 51.7317 70.848C54.7846 70.848 57.4941 70.338 59.9079 69.3759C57.4567 68.1588 55.7535 65.7043 55.6209 62.8146L55.6175 62.8078ZM44.3476 41.3661C46.2582 39.7104 48.5903 38.8809 51.3441 38.8809C52.8229 38.8809 54.108 39.1223 55.2061 39.6085C56.3008 40.0946 57.2051 40.7439 57.9225 41.5599C58.6364 42.3758 59.1566 43.3175 59.4897 44.3884C59.8195 45.4593 59.9861 46.5812 59.9861 47.7541H41.1757C41.3797 45.1533 42.437 43.0251 44.3476 41.3695V41.3661Z" fill="url(#paint1_linear_286_287)"/>
<path d="M63.3171 67.1459C65.9025 67.1459 67.9984 65.05 67.9984 62.4646C67.9984 59.8791 65.9025 57.7832 63.3171 57.7832C60.7317 57.7832 58.6357 59.8791 58.6357 62.4646C58.6357 65.05 60.7317 67.1459 63.3171 67.1459Z" fill="url(#paint2_linear_286_287)"/>
<path d="M216.963 43.7764C216.096 41.4306 214.872 39.3942 213.291 37.6604C211.71 35.9265 209.823 34.5633 207.634 33.5706C205.441 32.5779 203.044 32.0781 200.447 32.0781C198.764 32.0781 197.248 32.2685 195.898 32.6527C194.545 33.0334 193.335 33.5196 192.267 34.1043C191.196 34.6891 190.292 35.3554 189.551 36.0931C188.81 36.8309 188.212 37.5584 187.753 38.2723H187.521V33.149H178.727V77.5759C180.018 76.607 181.606 76.012 183.347 76.012C185.087 76.012 186.624 76.5832 187.902 77.5249V64.9597H188.055C189.228 66.7955 190.897 68.2472 193.063 69.3181C195.229 70.389 197.612 70.9227 200.212 70.9227C203.017 70.9227 205.526 70.3992 207.746 69.3555C209.963 68.3118 211.85 66.9077 213.407 65.1501C214.96 63.3924 216.16 61.3289 217 58.9559C217.84 56.5863 218.261 54.0502 218.261 51.3474C218.261 48.6447 217.826 46.1221 216.963 43.7764ZM209.932 55.6276C209.497 57.0555 208.848 58.3304 207.984 59.4488C207.117 60.5707 206.019 61.4886 204.697 62.2026C203.371 62.9165 201.817 63.2735 200.032 63.2735C198.349 63.2735 196.847 62.9301 195.521 62.24C194.195 61.5532 193.06 60.6489 192.118 59.527C191.173 58.4051 190.462 57.1439 189.976 55.7398C189.49 54.3391 189.249 52.9249 189.249 51.497C189.249 50.0692 189.49 48.6447 189.976 47.2168C190.459 45.789 191.173 44.5141 192.118 43.3922C193.06 42.2737 194.195 41.3524 195.521 40.6385C196.847 39.9246 198.349 39.5676 200.032 39.5676C201.817 39.5676 203.371 39.9109 204.697 40.6011C206.022 41.2878 207.117 42.1955 207.984 43.314C208.851 44.4359 209.5 45.6972 209.932 47.0978C210.364 48.5019 210.581 49.9162 210.581 51.3406C210.581 52.7651 210.364 54.1963 209.932 55.6242V55.6276Z" fill="url(#paint3_linear_286_287)"/>
<path d="M183.349 88.4271C185.935 88.4271 188.031 86.3312 188.031 83.7458C188.031 81.1604 185.935 79.0645 183.349 79.0645C180.764 79.0645 178.668 81.1604 178.668 83.7458C178.668 86.3312 180.764 88.4271 183.349 88.4271Z" fill="url(#paint4_linear_286_287)"/>
<path d="M75.3055 43.7764C76.1724 41.4306 77.3963 39.3942 78.9771 37.6604C80.5579 35.9265 82.4448 34.5633 84.6342 33.5706C86.827 32.5779 89.2237 32.0781 91.8211 32.0781C93.5039 32.0781 95.0202 32.2685 96.3699 32.6527C97.7229 33.0334 98.9332 33.5196 100.001 34.1043C101.072 34.6891 101.976 35.3554 102.717 36.0931C103.458 36.8309 104.056 37.5584 104.515 38.2723H104.747V33.149H113.542V77.5759C112.25 76.607 110.662 76.012 108.921 76.012C107.181 76.012 105.644 76.5832 104.366 77.5249V64.9597H104.213C103.04 66.7955 101.371 68.2472 99.2051 69.3181C97.0395 70.389 94.6564 70.9227 92.0556 70.9227C89.2509 70.9227 86.742 70.3992 84.522 69.3555C82.3054 68.3118 80.4186 66.9077 78.8616 65.1501C77.3079 63.3924 76.1078 61.3289 75.2681 58.9559C74.4284 56.5863 74.0068 54.0502 74.0068 51.3474C74.0068 48.6447 74.442 46.1221 75.3055 43.7764ZM82.336 55.6276C82.7712 57.0555 83.4205 58.3304 84.284 59.4488C85.1509 60.5707 86.249 61.4886 87.5715 62.2026C88.8973 62.9165 90.451 63.2735 92.2358 63.2735C93.9186 63.2735 95.4213 62.9301 96.7472 62.24C98.073 61.5532 99.2085 60.6489 100.15 59.527C101.095 58.4051 101.806 57.1439 102.292 55.7398C102.778 54.3391 103.02 52.9249 103.02 51.497C103.02 50.0692 102.778 48.6447 102.292 47.2168C101.809 45.789 101.095 44.5141 100.15 43.3922C99.2085 42.2737 98.073 41.3524 96.7472 40.6385C95.4213 39.9246 93.9186 39.5676 92.2358 39.5676C90.451 39.5676 88.8973 39.9109 87.5715 40.6011C86.2456 41.2878 85.1509 42.1955 84.284 43.314C83.4171 44.4359 82.7678 45.6972 82.336 47.0978C81.9043 48.5019 81.6866 49.9162 81.6866 51.3406C81.6866 52.7651 81.9043 54.1963 82.336 55.6242V55.6276Z" fill="url(#paint5_linear_286_287)"/>
<path d="M108.918 88.4281C111.503 88.4281 113.599 86.3322 113.599 83.7468C113.599 81.1613 111.503 79.0654 108.918 79.0654C106.332 79.0654 104.236 81.1613 104.236 83.7468C104.236 86.3322 106.332 88.4281 108.918 88.4281Z" fill="url(#paint6_linear_286_287)"/>
<path d="M262.385 43.6983C261.519 41.3525 260.295 39.3161 258.714 37.5823C257.133 35.8484 255.246 34.4852 253.057 33.4925C250.864 32.4998 248.467 32 245.87 32C244.187 32 242.671 32.1904 241.321 32.5745C239.968 32.9553 238.758 33.4415 237.69 34.0262C236.619 34.6109 235.715 35.2773 234.974 36.015C234.233 36.7527 233.634 37.4803 233.176 38.1942H232.944V33.0709H224.149V77.4977C225.441 76.5288 227.029 75.9339 228.77 75.9339C230.51 75.9339 232.047 76.505 233.325 77.4467V64.8816H233.478C234.651 66.7174 236.32 68.1691 238.486 69.2399C240.651 70.3108 243.035 70.8446 245.635 70.8446C248.44 70.8446 250.949 70.321 253.169 69.2773C255.386 68.2336 257.272 66.8296 258.829 65.072C260.383 63.3143 261.583 61.2507 262.423 58.8778C263.263 56.5082 263.684 53.972 263.684 51.2693C263.684 48.5666 263.249 46.044 262.385 43.6983ZM255.355 55.5495C254.92 56.9773 254.27 58.2522 253.407 59.3707C252.54 60.4926 251.442 61.4105 250.12 62.1244C248.794 62.8384 247.24 63.1953 245.455 63.1953C243.772 63.1953 242.27 62.852 240.944 62.1618C239.618 61.4751 238.482 60.5708 237.541 59.4489C236.596 58.327 235.885 57.0657 235.399 55.6617C234.913 54.261 234.671 52.8468 234.671 51.4189C234.671 49.991 234.913 48.5666 235.399 47.1387C235.882 45.7109 236.596 44.436 237.541 43.3141C238.482 42.1956 239.618 41.2743 240.944 40.5604C242.27 39.8464 243.772 39.4895 245.455 39.4895C247.24 39.4895 248.794 39.8328 250.12 40.523C251.445 41.2097 252.54 42.1174 253.407 43.2359C254.274 44.3578 254.923 45.6191 255.355 47.0197C255.787 48.4238 256.004 49.8381 256.004 51.2625C256.004 52.687 255.787 54.1182 255.355 55.5461V55.5495Z" fill="url(#paint7_linear_286_287)"/>
<path d="M228.772 88.349C231.358 88.349 233.454 86.2531 233.454 83.6677C233.454 81.0822 231.358 78.9863 228.772 78.9863C226.187 78.9863 224.091 81.0822 224.091 83.6677C224.091 86.2531 226.187 88.349 228.772 88.349Z" fill="url(#paint8_linear_286_287)"/>
<path d="M155.139 33.207V70.6951H146.235V64.6811H146.079C145.246 66.5578 143.798 68.21 141.744 69.6413C139.687 71.0725 137.253 71.7898 134.442 71.7898C131.997 71.7898 129.9 71.3581 128.156 70.5014C126.412 69.6447 124.98 68.5092 123.862 67.1051C122.74 65.6976 121.921 64.0862 121.404 62.264C120.884 60.4418 120.622 58.5685 120.622 56.6409V33.2104H129.995V53.9858C129.995 55.0805 130.073 56.2228 130.226 57.4229C130.383 58.6229 130.719 59.7006 131.243 60.6627C131.766 61.6249 132.48 62.4204 133.391 63.0459C134.302 63.668 135.516 63.9842 137.022 63.9842C138.528 63.9842 139.766 63.685 140.891 63.0867C142.009 62.4883 142.921 61.72 143.624 60.7817C144.325 59.8434 144.858 58.7623 145.225 57.5418C145.467 56.7361 145.623 55.9236 145.705 55.1043V33.2138H155.142L155.139 33.207Z" fill="url(#paint9_linear_286_287)"/>
<path d="M39.476 110.121H38.0686C37.8 110.121 37.6096 110.019 37.4872 109.811L35.7262 107.146C35.6616 107.047 35.5868 106.976 35.5086 106.932C35.4304 106.891 35.3114 106.867 35.1584 106.867H34.4921V110.117H32.9316V101.795H35.4882C36.0559 101.795 36.5455 101.853 36.9535 101.972C37.3614 102.087 37.6946 102.254 37.9564 102.465C38.2181 102.675 38.4085 102.927 38.5343 103.223C38.6567 103.515 38.7213 103.838 38.7213 104.192C38.7213 104.47 38.6804 104.736 38.5955 104.987C38.5105 105.235 38.3915 105.463 38.2352 105.667C38.0788 105.871 37.885 106.048 37.6538 106.201C37.4226 106.354 37.1609 106.476 36.8685 106.565C36.9671 106.622 37.0623 106.69 37.1473 106.769C37.2323 106.847 37.3104 106.939 37.3784 107.047L39.476 110.121ZM35.4644 105.759C35.7567 105.759 36.0151 105.722 36.2327 105.65C36.4503 105.579 36.6305 105.477 36.7699 105.348C36.9127 105.218 37.0146 105.065 37.086 104.889C37.154 104.712 37.1914 104.518 37.1914 104.307C37.1914 103.886 37.052 103.563 36.7699 103.335C36.4877 103.107 36.0627 102.995 35.4848 102.995H34.4887V105.756H35.461L35.4644 105.759Z" fill="url(#paint10_linear_286_287)"/>
<path d="M44.8481 103.033V105.341H47.7819V106.531H44.8481V108.884H48.5707V110.121H43.2842V101.799H48.5707V103.03H44.8481V103.033Z" fill="url(#paint11_linear_286_287)"/>
<path d="M59.9151 101.802V110.124H59.1161C58.9938 110.124 58.8884 110.104 58.8068 110.063C58.7252 110.022 58.6436 109.954 58.5654 109.859L54.19 104.311C54.2138 104.566 54.2241 104.797 54.2241 105.011V110.121H52.8506V101.798H53.6665C53.7311 101.798 53.7889 101.798 53.8365 101.809C53.8841 101.815 53.9283 101.826 53.9657 101.843C54.0031 101.859 54.037 101.883 54.0744 101.917C54.1084 101.951 54.1492 101.992 54.19 102.046L58.5824 107.615C58.5722 107.483 58.562 107.35 58.5552 107.217C58.5484 107.088 58.545 106.966 58.545 106.854V101.795H59.9185L59.9151 101.802Z" fill="url(#paint12_linear_286_287)"/>
<path d="M70.5313 103.073H68.0053V110.124H66.4449V103.073H63.9189V101.802H70.5313V103.073Z" fill="url(#paint13_linear_286_287)"/>
<path d="M81.4583 103.033V105.341H84.3923V106.531H81.4583V108.884H85.1809V110.121H79.8945V101.799H85.1809V103.03H81.4583V103.033Z" fill="url(#paint14_linear_286_287)"/>
<path d="M96.6372 110.121H95.4303C95.2943 110.121 95.1855 110.087 95.1005 110.019C95.0155 109.951 94.9509 109.869 94.9101 109.767L94.2845 108.071H90.8135L90.1879 109.767C90.1573 109.856 90.0962 109.937 90.0078 110.009C89.9194 110.08 89.8071 110.117 89.678 110.117H88.4609L91.7586 101.795H93.3462L96.6372 110.117V110.121ZM93.8834 106.979L92.8635 104.212C92.8125 104.09 92.7615 103.944 92.7071 103.774C92.6527 103.604 92.5983 103.423 92.5439 103.226C92.4929 103.423 92.442 103.607 92.3876 103.777C92.3332 103.947 92.2821 104.096 92.2311 104.222L91.218 106.979H93.8834Z" fill="url(#paint15_linear_286_287)"/>
<path d="M104.868 103.315C104.82 103.397 104.773 103.455 104.722 103.492C104.671 103.529 104.606 103.546 104.528 103.546C104.45 103.546 104.358 103.516 104.263 103.458C104.168 103.4 104.055 103.332 103.923 103.261C103.79 103.189 103.637 103.121 103.46 103.064C103.284 103.006 103.076 102.975 102.838 102.975C102.621 102.975 102.434 103.002 102.271 103.053C102.107 103.104 101.971 103.176 101.863 103.268C101.754 103.359 101.669 103.472 101.618 103.597C101.567 103.723 101.536 103.866 101.536 104.019C101.536 104.216 101.591 104.376 101.703 104.508C101.815 104.641 101.958 104.75 102.141 104.842C102.322 104.933 102.529 105.015 102.76 105.09C102.991 105.161 103.229 105.239 103.474 105.324C103.719 105.406 103.957 105.501 104.188 105.613C104.419 105.722 104.626 105.862 104.807 106.028C104.987 106.195 105.133 106.399 105.245 106.64C105.354 106.881 105.412 107.174 105.412 107.521C105.412 107.898 105.347 108.248 105.218 108.578C105.089 108.908 104.898 109.193 104.65 109.435C104.402 109.679 104.096 109.87 103.736 110.009C103.375 110.148 102.964 110.22 102.502 110.22C102.233 110.22 101.971 110.193 101.713 110.142C101.455 110.091 101.207 110.016 100.969 109.921C100.731 109.826 100.506 109.71 100.299 109.574C100.091 109.441 99.9044 109.292 99.7412 109.125L100.2 108.384C100.238 108.33 100.289 108.285 100.35 108.248C100.411 108.211 100.479 108.194 100.547 108.194C100.642 108.194 100.748 108.234 100.86 108.313C100.972 108.391 101.104 108.479 101.261 108.574C101.417 108.67 101.597 108.758 101.801 108.836C102.009 108.914 102.257 108.955 102.546 108.955C102.991 108.955 103.335 108.85 103.579 108.642C103.824 108.435 103.943 108.132 103.943 107.742C103.943 107.524 103.889 107.344 103.777 107.208C103.668 107.068 103.522 106.953 103.338 106.861C103.158 106.766 102.95 106.688 102.719 106.623C102.488 106.558 102.25 106.487 102.012 106.409C101.774 106.331 101.536 106.239 101.305 106.133C101.074 106.025 100.867 105.885 100.686 105.712C100.506 105.539 100.36 105.324 100.248 105.066C100.139 104.808 100.081 104.488 100.081 104.107C100.081 103.805 100.142 103.509 100.265 103.22C100.387 102.931 100.564 102.676 100.795 102.455C101.026 102.234 101.312 102.054 101.652 101.921C101.992 101.789 102.383 101.721 102.821 101.721C103.318 101.721 103.773 101.799 104.188 101.952C104.603 102.105 104.96 102.319 105.255 102.598L104.868 103.329V103.315Z" fill="url(#paint16_linear_286_287)"/>
<path d="M113.072 106.901V110.124H111.518V106.901L108.462 101.802H109.835C109.971 101.802 110.077 101.836 110.158 101.9C110.237 101.965 110.305 102.047 110.359 102.149L111.889 104.926C111.977 105.093 112.055 105.246 112.123 105.392C112.191 105.538 112.253 105.684 112.307 105.83C112.358 105.684 112.416 105.538 112.48 105.392C112.545 105.246 112.623 105.089 112.708 104.926L114.231 102.149C114.272 102.064 114.337 101.985 114.422 101.914C114.507 101.843 114.615 101.805 114.748 101.805H116.128L113.072 106.905V106.901Z" fill="url(#paint17_linear_286_287)"/>
<path d="M143.098 110.121H141.691C141.422 110.121 141.232 110.019 141.109 109.811L139.348 107.146C139.284 107.047 139.209 106.976 139.131 106.932C139.052 106.891 138.933 106.867 138.781 106.867H138.114V110.117H136.554V101.795H139.11C139.678 101.795 140.168 101.853 140.576 101.972C140.984 102.087 141.317 102.254 141.578 102.465C141.84 102.675 142.031 102.927 142.156 103.223C142.279 103.515 142.343 103.838 142.343 104.192C142.343 104.47 142.303 104.736 142.218 104.987C142.133 105.235 142.014 105.463 141.857 105.667C141.701 105.871 141.507 106.048 141.276 106.201C141.045 106.354 140.783 106.476 140.491 106.565C140.589 106.622 140.684 106.69 140.769 106.769C140.854 106.847 140.933 106.939 141.001 107.047L143.098 110.121ZM139.086 105.759C139.379 105.759 139.637 105.722 139.855 105.65C140.072 105.579 140.253 105.477 140.392 105.348C140.535 105.218 140.637 105.065 140.708 104.889C140.776 104.712 140.814 104.518 140.814 104.307C140.814 103.886 140.674 103.563 140.392 103.335C140.11 103.107 139.685 102.995 139.107 102.995H138.111V105.756H139.083L139.086 105.759Z" fill="url(#paint18_linear_286_287)"/>
<path d="M148.469 103.033V105.341H151.403V106.531H148.469V108.884H152.192V110.121H146.905V101.799H152.192V103.03H148.469V103.033Z" fill="url(#paint19_linear_286_287)"/>
<path d="M163.533 101.802V110.124H162.734C162.612 110.124 162.507 110.104 162.425 110.063C162.343 110.022 162.262 109.954 162.184 109.859L157.808 104.311C157.832 104.566 157.842 104.797 157.842 105.011V110.121H156.469V101.798H157.285C157.349 101.798 157.407 101.798 157.455 101.809C157.502 101.815 157.546 101.826 157.584 101.843C157.621 101.859 157.655 101.883 157.693 101.917C157.727 101.951 157.767 101.992 157.808 102.046L162.201 107.615C162.19 107.483 162.18 107.35 162.173 107.217C162.167 107.088 162.163 106.966 162.163 106.854V101.795H163.537L163.533 101.802Z" fill="url(#paint20_linear_286_287)"/>
<path d="M174.153 103.073H171.627V110.124H170.067V103.073H167.541V101.802H174.153V103.073Z" fill="url(#paint21_linear_286_287)"/>
<path d="M186.644 106.901V110.124H185.09V106.901L182.034 101.802H183.408C183.544 101.802 183.649 101.836 183.731 101.9C183.809 101.965 183.877 102.047 183.931 102.149L185.461 104.926C185.549 105.093 185.628 105.246 185.696 105.392C185.764 105.538 185.825 105.684 185.879 105.83C185.93 105.684 185.988 105.538 186.053 105.392C186.117 105.246 186.195 105.089 186.28 104.926L187.803 102.149C187.844 102.064 187.909 101.985 187.994 101.914C188.079 101.843 188.188 101.805 188.32 101.805H189.7L186.644 106.905V106.901Z" fill="url(#paint22_linear_286_287)"/>
<path d="M200.96 105.963C200.96 106.571 200.858 107.139 200.654 107.659C200.45 108.18 200.164 108.628 199.794 109.009C199.423 109.39 198.978 109.686 198.454 109.9C197.931 110.114 197.353 110.219 196.713 110.219C196.074 110.219 195.503 110.114 194.98 109.9C194.456 109.686 194.011 109.39 193.637 109.009C193.263 108.628 192.974 108.18 192.77 107.659C192.566 107.139 192.464 106.575 192.464 105.963C192.464 105.351 192.566 104.787 192.77 104.27C192.974 103.753 193.263 103.301 193.637 102.92C194.011 102.539 194.456 102.244 194.98 102.03C195.5 101.815 196.078 101.71 196.713 101.71C197.138 101.71 197.54 101.758 197.914 101.856C198.288 101.955 198.631 102.091 198.947 102.271C199.26 102.451 199.542 102.665 199.79 102.92C200.038 103.175 200.252 103.461 200.426 103.774C200.599 104.09 200.732 104.43 200.824 104.797C200.915 105.164 200.96 105.552 200.96 105.96V105.963ZM199.365 105.963C199.365 105.507 199.304 105.096 199.178 104.736C199.056 104.372 198.879 104.066 198.651 103.811C198.423 103.556 198.145 103.366 197.818 103.23C197.492 103.097 197.125 103.029 196.713 103.029C196.302 103.029 195.935 103.097 195.609 103.23C195.282 103.366 195.003 103.556 194.772 103.811C194.541 104.066 194.364 104.372 194.242 104.736C194.119 105.099 194.058 105.507 194.058 105.963C194.058 106.419 194.119 106.83 194.242 107.19C194.364 107.554 194.541 107.86 194.772 108.112C195.003 108.363 195.279 108.557 195.609 108.689C195.935 108.825 196.302 108.89 196.713 108.89C197.125 108.89 197.492 108.822 197.818 108.689C198.145 108.557 198.423 108.363 198.651 108.112C198.879 107.86 199.056 107.554 199.178 107.19C199.301 106.826 199.365 106.419 199.365 105.963Z" fill="url(#paint23_linear_286_287)"/>
<path d="M208.606 108.874C208.908 108.874 209.177 108.823 209.415 108.724C209.653 108.625 209.854 108.483 210.013 108.302C210.176 108.122 210.299 107.905 210.387 107.646C210.476 107.388 210.516 107.102 210.516 106.783V101.799H212.077V106.783C212.077 107.279 211.995 107.735 211.835 108.156C211.676 108.578 211.444 108.938 211.145 109.244C210.846 109.55 210.482 109.788 210.054 109.958C209.626 110.128 209.143 110.213 208.606 110.213C208.069 110.213 207.579 110.128 207.151 109.958C206.722 109.788 206.359 109.55 206.059 109.244C205.76 108.938 205.529 108.578 205.369 108.156C205.21 107.735 205.128 107.279 205.128 106.783V101.799H206.688V106.776C206.688 107.095 206.733 107.381 206.818 107.639C206.903 107.898 207.028 108.115 207.195 108.299C207.358 108.483 207.559 108.622 207.797 108.721C208.035 108.819 208.303 108.87 208.606 108.87V108.874Z" fill="url(#paint24_linear_286_287)"/>
<path d="M223.283 110.121H221.875C221.607 110.121 221.416 110.019 221.294 109.811L219.533 107.146C219.468 107.047 219.393 106.976 219.315 106.932C219.237 106.891 219.118 106.867 218.965 106.867H218.299V110.117H216.738V101.795H219.295C219.863 101.795 220.352 101.853 220.76 101.972C221.168 102.087 221.501 102.254 221.763 102.465C222.025 102.675 222.215 102.927 222.341 103.223C222.463 103.515 222.528 103.838 222.528 104.192C222.528 104.47 222.487 104.736 222.402 104.987C222.317 105.235 222.198 105.463 222.042 105.667C221.885 105.871 221.692 106.048 221.46 106.201C221.229 106.354 220.967 106.476 220.675 106.565C220.774 106.622 220.869 106.69 220.954 106.769C221.039 106.847 221.117 106.939 221.185 107.047L223.283 110.121ZM219.271 105.759C219.563 105.759 219.822 105.722 220.039 105.65C220.257 105.579 220.437 105.477 220.577 105.348C220.719 105.218 220.821 105.065 220.893 104.889C220.961 104.712 220.998 104.518 220.998 104.307C220.998 103.886 220.859 103.563 220.577 103.335C220.294 103.107 219.869 102.995 219.291 102.995H218.295V105.756H219.268L219.271 105.759Z" fill="url(#paint25_linear_286_287)"/>
<path d="M243.884 101.802L241.28 110.124H239.872L238.04 104.44C237.989 104.301 237.944 104.134 237.9 103.933C237.876 104.029 237.853 104.12 237.832 104.205C237.812 104.29 237.785 104.369 237.758 104.44L235.908 110.124H234.494L231.896 101.802H233.202C233.338 101.802 233.45 101.832 233.542 101.897C233.634 101.962 233.695 102.047 233.726 102.152L235.15 107.129C235.181 107.251 235.211 107.384 235.238 107.53C235.266 107.673 235.296 107.826 235.327 107.982C235.357 107.823 235.391 107.67 235.429 107.527C235.466 107.384 235.504 107.251 235.548 107.129L237.193 102.152C237.224 102.064 237.285 101.982 237.377 101.911C237.469 101.839 237.577 101.802 237.71 101.802H238.169C238.305 101.802 238.414 101.836 238.499 101.9C238.584 101.965 238.648 102.05 238.689 102.155L240.331 107.132C240.413 107.37 240.484 107.646 240.552 107.955C240.603 107.653 240.657 107.377 240.719 107.132L242.143 102.155C242.167 102.06 242.225 101.979 242.32 101.907C242.415 101.839 242.527 101.805 242.66 101.805H243.884V101.802Z" fill="url(#paint26_linear_286_287)"/>
<path d="M254.444 110.121H253.237C253.101 110.121 252.992 110.087 252.907 110.019C252.822 109.951 252.758 109.869 252.717 109.767L252.091 108.071H248.62L247.995 109.767C247.964 109.856 247.903 109.937 247.814 110.009C247.726 110.08 247.614 110.117 247.485 110.117H246.268L249.565 101.795H251.153L254.444 110.117V110.121ZM251.69 106.979L250.67 104.212C250.619 104.09 250.568 103.944 250.514 103.774C250.459 103.604 250.405 103.423 250.351 103.226C250.3 103.423 250.249 103.607 250.194 103.777C250.14 103.947 250.089 104.096 250.038 104.222L249.025 106.979H251.69Z" fill="url(#paint27_linear_286_287)"/>
<path d="M260.943 106.901V110.124H259.389V106.901L256.333 101.802H257.706C257.842 101.802 257.948 101.836 258.029 101.9C258.108 101.965 258.176 102.047 258.23 102.149L259.76 104.926C259.848 105.093 259.926 105.246 259.994 105.392C260.062 105.538 260.124 105.684 260.178 105.83C260.229 105.684 260.287 105.538 260.351 105.392C260.416 105.246 260.494 105.089 260.579 104.926L262.102 102.149C262.143 102.064 262.208 101.985 262.293 101.914C262.378 101.843 262.486 101.805 262.619 101.805H263.999L260.943 106.905V106.901Z" fill="url(#paint28_linear_286_287)"/>
<path d="M125.002 107.465C125.77 107.465 126.392 106.843 126.392 106.075C126.392 105.307 125.77 104.685 125.002 104.685C124.234 104.685 123.611 105.307 123.611 106.075C123.611 106.843 124.234 107.465 125.002 107.465Z" fill="url(#paint29_linear_286_287)"/>
<defs>
<linearGradient id="paint0_linear_286_287" x1="147.997" y1="110.213" x2="147.997" y2="32.0002" gradientUnits="userSpaceOnUse">
<stop stop-color="#C76537"/>
<stop offset="0.23" stop-color="#EF9571"/>
<stop offset="0.49" stop-color="#A63D29"/>
<stop offset="1" stop-color="#F6996B"/>
</linearGradient>
<linearGradient id="paint1_linear_286_287" x1="147.997" y1="110.213" x2="147.997" y2="32" gradientUnits="userSpaceOnUse">
<stop stop-color="#C76537"/>
<stop offset="0.23" stop-color="#EF9571"/>
<stop offset="0.49" stop-color="#A63D29"/>
<stop offset="1" stop-color="#F6996B"/>
</linearGradient>
<linearGradient id="paint2_linear_286_287" x1="147.996" y1="110.213" x2="147.996" y2="32.0002" gradientUnits="userSpaceOnUse">
<stop stop-color="#C76537"/>
<stop offset="0.23" stop-color="#EF9571"/>
<stop offset="0.49" stop-color="#A63D29"/>
<stop offset="1" stop-color="#F6996B"/>
</linearGradient>
<linearGradient id="paint3_linear_286_287" x1="147.997" y1="110.213" x2="147.997" y2="31.9999" gradientUnits="userSpaceOnUse">
<stop stop-color="#C76537"/>
<stop offset="0.23" stop-color="#EF9571"/>
<stop offset="0.49" stop-color="#A63D29"/>
<stop offset="1" stop-color="#F6996B"/>
</linearGradient>
<linearGradient id="paint4_linear_286_287" x1="147.996" y1="110.212" x2="147.996" y2="31.9994" gradientUnits="userSpaceOnUse">
<stop stop-color="#C76537"/>
<stop offset="0.23" stop-color="#EF9571"/>
<stop offset="0.49" stop-color="#A63D29"/>
<stop offset="1" stop-color="#F6996B"/>
</linearGradient>
<linearGradient id="paint5_linear_286_287" x1="147.997" y1="110.213" x2="147.997" y2="31.9999" gradientUnits="userSpaceOnUse">
<stop stop-color="#C76537"/>
<stop offset="0.23" stop-color="#EF9571"/>
<stop offset="0.49" stop-color="#A63D29"/>
<stop offset="1" stop-color="#F6996B"/>
</linearGradient>
<linearGradient id="paint6_linear_286_287" x1="147.997" y1="110.213" x2="147.997" y2="32.0004" gradientUnits="userSpaceOnUse">
<stop stop-color="#C76537"/>
<stop offset="0.23" stop-color="#EF9571"/>
<stop offset="0.49" stop-color="#A63D29"/>
<stop offset="1" stop-color="#F6996B"/>
</linearGradient>
<linearGradient id="paint7_linear_286_287" x1="147.997" y1="110.213" x2="147.997" y2="32" gradientUnits="userSpaceOnUse">
<stop stop-color="#C76537"/>
<stop offset="0.23" stop-color="#EF9571"/>
<stop offset="0.49" stop-color="#A63D29"/>
<stop offset="1" stop-color="#F6996B"/>
</linearGradient>
<linearGradient id="paint8_linear_286_287" x1="147.996" y1="110.212" x2="147.996" y2="31.9995" gradientUnits="userSpaceOnUse">
<stop stop-color="#C76537"/>
<stop offset="0.23" stop-color="#EF9571"/>
<stop offset="0.49" stop-color="#A63D29"/>
<stop offset="1" stop-color="#F6996B"/>
</linearGradient>
<linearGradient id="paint9_linear_286_287" x1="147.996" y1="110.213" x2="147.996" y2="32.0002" gradientUnits="userSpaceOnUse">
<stop stop-color="#C76537"/>
<stop offset="0.23" stop-color="#EF9571"/>
<stop offset="0.49" stop-color="#A63D29"/>
<stop offset="1" stop-color="#F6996B"/>
</linearGradient>
<linearGradient id="paint10_linear_286_287" x1="147.997" y1="110.212" x2="147.997" y2="31.9998" gradientUnits="userSpaceOnUse">
<stop stop-color="#C76537"/>
<stop offset="0.23" stop-color="#EF9571"/>
<stop offset="0.49" stop-color="#A63D29"/>
<stop offset="1" stop-color="#F6996B"/>
</linearGradient>
<linearGradient id="paint11_linear_286_287" x1="147.998" y1="110.213" x2="147.998" y2="32.0003" gradientUnits="userSpaceOnUse">
<stop stop-color="#C76537"/>
<stop offset="0.23" stop-color="#EF9571"/>
<stop offset="0.49" stop-color="#A63D29"/>
<stop offset="1" stop-color="#F6996B"/>
</linearGradient>
<linearGradient id="paint12_linear_286_287" x1="147.997" y1="110.212" x2="147.997" y2="31.9998" gradientUnits="userSpaceOnUse">
<stop stop-color="#C76537"/>
<stop offset="0.23" stop-color="#EF9571"/>
<stop offset="0.49" stop-color="#A63D29"/>
<stop offset="1" stop-color="#F6996B"/>
</linearGradient>
<linearGradient id="paint13_linear_286_287" x1="147.996" y1="110.213" x2="147.996" y2="31.9997" gradientUnits="userSpaceOnUse">
<stop stop-color="#C76537"/>
<stop offset="0.23" stop-color="#EF9571"/>
<stop offset="0.49" stop-color="#A63D29"/>
<stop offset="1" stop-color="#F6996B"/>
</linearGradient>
<linearGradient id="paint14_linear_286_287" x1="147.996" y1="110.213" x2="147.996" y2="32.0003" gradientUnits="userSpaceOnUse">
<stop stop-color="#C76537"/>
<stop offset="0.23" stop-color="#EF9571"/>
<stop offset="0.49" stop-color="#A63D29"/>
<stop offset="1" stop-color="#F6996B"/>
</linearGradient>
<linearGradient id="paint15_linear_286_287" x1="147.996" y1="110.212" x2="147.996" y2="31.9998" gradientUnits="userSpaceOnUse">
<stop stop-color="#C76537"/>
<stop offset="0.23" stop-color="#EF9571"/>
<stop offset="0.49" stop-color="#A63D29"/>
<stop offset="1" stop-color="#F6996B"/>
</linearGradient>
<linearGradient id="paint16_linear_286_287" x1="147.996" y1="110.213" x2="147.996" y2="32.0003" gradientUnits="userSpaceOnUse">
<stop stop-color="#C76537"/>
<stop offset="0.23" stop-color="#EF9571"/>
<stop offset="0.49" stop-color="#A63D29"/>
<stop offset="1" stop-color="#F6996B"/>
</linearGradient>
<linearGradient id="paint17_linear_286_287" x1="147.997" y1="110.213" x2="147.997" y2="31.9997" gradientUnits="userSpaceOnUse">
<stop stop-color="#C76537"/>
<stop offset="0.23" stop-color="#EF9571"/>
<stop offset="0.49" stop-color="#A63D29"/>
<stop offset="1" stop-color="#F6996B"/>
</linearGradient>
<linearGradient id="paint18_linear_286_287" x1="147.997" y1="110.212" x2="147.997" y2="31.9998" gradientUnits="userSpaceOnUse">
<stop stop-color="#C76537"/>
<stop offset="0.23" stop-color="#EF9571"/>
<stop offset="0.49" stop-color="#A63D29"/>
<stop offset="1" stop-color="#F6996B"/>
</linearGradient>
<linearGradient id="paint19_linear_286_287" x1="147.997" y1="110.213" x2="147.997" y2="32.0003" gradientUnits="userSpaceOnUse">
<stop stop-color="#C76537"/>
<stop offset="0.23" stop-color="#EF9571"/>
<stop offset="0.49" stop-color="#A63D29"/>
<stop offset="1" stop-color="#F6996B"/>
</linearGradient>
<linearGradient id="paint20_linear_286_287" x1="147.997" y1="110.212" x2="147.997" y2="31.9998" gradientUnits="userSpaceOnUse">
<stop stop-color="#C76537"/>
<stop offset="0.23" stop-color="#EF9571"/>
<stop offset="0.49" stop-color="#A63D29"/>
<stop offset="1" stop-color="#F6996B"/>
</linearGradient>
<linearGradient id="paint21_linear_286_287" x1="147.996" y1="110.213" x2="147.996" y2="31.9997" gradientUnits="userSpaceOnUse">
<stop stop-color="#C76537"/>
<stop offset="0.23" stop-color="#EF9571"/>
<stop offset="0.49" stop-color="#A63D29"/>
<stop offset="1" stop-color="#F6996B"/>
</linearGradient>
<linearGradient id="paint22_linear_286_287" x1="147.997" y1="110.213" x2="147.997" y2="31.9997" gradientUnits="userSpaceOnUse">
<stop stop-color="#C76537"/>
<stop offset="0.23" stop-color="#EF9571"/>
<stop offset="0.49" stop-color="#A63D29"/>
<stop offset="1" stop-color="#F6996B"/>
</linearGradient>
<linearGradient id="paint23_linear_286_287" x1="147.996" y1="110.213" x2="147.996" y2="31.9999" gradientUnits="userSpaceOnUse">
<stop stop-color="#C76537"/>
<stop offset="0.23" stop-color="#EF9571"/>
<stop offset="0.49" stop-color="#A63D29"/>
<stop offset="1" stop-color="#F6996B"/>
</linearGradient>
<linearGradient id="paint24_linear_286_287" x1="147.997" y1="110.213" x2="147.997" y2="32.0003" gradientUnits="userSpaceOnUse">
<stop stop-color="#C76537"/>
<stop offset="0.23" stop-color="#EF9571"/>
<stop offset="0.49" stop-color="#A63D29"/>
<stop offset="1" stop-color="#F6996B"/>
</linearGradient>
<linearGradient id="paint25_linear_286_287" x1="147.997" y1="110.212" x2="147.997" y2="31.9998" gradientUnits="userSpaceOnUse">
<stop stop-color="#C76537"/>
<stop offset="0.23" stop-color="#EF9571"/>
<stop offset="0.49" stop-color="#A63D29"/>
<stop offset="1" stop-color="#F6996B"/>
</linearGradient>
<linearGradient id="paint26_linear_286_287" x1="147.996" y1="110.213" x2="147.996" y2="31.9997" gradientUnits="userSpaceOnUse">
<stop stop-color="#C76537"/>
<stop offset="0.23" stop-color="#EF9571"/>
<stop offset="0.49" stop-color="#A63D29"/>
<stop offset="1" stop-color="#F6996B"/>
</linearGradient>
<linearGradient id="paint27_linear_286_287" x1="147.997" y1="110.212" x2="147.997" y2="31.9998" gradientUnits="userSpaceOnUse">
<stop stop-color="#C76537"/>
<stop offset="0.23" stop-color="#EF9571"/>
<stop offset="0.49" stop-color="#A63D29"/>
<stop offset="1" stop-color="#F6996B"/>
</linearGradient>
<linearGradient id="paint28_linear_286_287" x1="147.997" y1="110.213" x2="147.997" y2="31.9997" gradientUnits="userSpaceOnUse">
<stop stop-color="#C76537"/>
<stop offset="0.23" stop-color="#EF9571"/>
<stop offset="0.49" stop-color="#A63D29"/>
<stop offset="1" stop-color="#F6996B"/>
</linearGradient>
<linearGradient id="paint29_linear_286_287" x1="147.997" y1="110.212" x2="147.997" y2="31.9998" gradientUnits="userSpaceOnUse">
<stop stop-color="#C76537"/>
<stop offset="0.23" stop-color="#EF9571"/>
<stop offset="0.49" stop-color="#A63D29"/>
<stop offset="1" stop-color="#F6996B"/>
</linearGradient>
</defs>
</svg>
