<svg width="11" height="6" viewBox="0 0 11 6" fill="none" xmlns="http://www.w3.org/2000/svg">
<path d="M0.00120831 0.592329C0.0488024 0.748114 0.154427 0.861298 0.266731 0.973646C1.87573 2.58077 3.48335 4.18888 5.08956 5.79795C5.22901 5.93787 5.3864 6.03936 5.58512 5.98506C5.70406 5.95132 5.81279 5.88861 5.90158 5.80255C6.74686 4.96724 7.58837 4.12748 8.42614 3.28327C9.22048 2.48805 10.0152 1.69368 10.8104 0.900139C10.9565 0.75396 11.0375 0.588988 10.9828 0.378073C10.9625 0.296078 10.9215 0.220655 10.8638 0.158963C10.806 0.0972719 10.7335 0.0513594 10.6531 0.0255841C10.5727 -0.000191184 10.487 -0.00497287 10.4042 0.0116912C10.3214 0.0283554 10.2442 0.0659126 10.18 0.120799C10.1445 0.150452 10.1115 0.183865 10.0786 0.216442C8.58478 1.71052 7.09128 3.20489 5.59807 4.69952C5.56905 4.73387 5.54281 4.77046 5.51958 4.80895C5.46656 4.75842 5.43608 4.73001 5.4056 4.69994C3.90682 3.20113 2.40817 1.70189 0.909665 0.202241C0.81406 0.107017 0.713024 0.0268267 0.572748 0.00845C0.462238 -0.00807328 0.349389 0.0131543 0.252425 0.068703C0.155461 0.124252 0.0800486 0.210878 0.0383654 0.31459C0.0262585 0.343826 0.0128975 0.372226 0.000372887 0.400627L0.00120831 0.592329Z" fill="#E8815D"/>
</svg>
