<svg width="20" height="27" viewBox="0 0 20 27" fill="none" xmlns="http://www.w3.org/2000/svg">
<path d="M10.1578 27H9.84457C9.75007 26.9118 9.65297 26.8267 9.56213 26.7358C7.66616 24.8396 5.92622 22.7901 4.35963 20.6076C2.9328 18.6111 1.67251 16.518 0.809513 14.2008C0.0864372 12.2599 -0.223676 10.2735 0.176234 8.21044C0.612855 5.91005 1.82463 3.83419 3.60487 2.33695C5.3851 0.839707 7.62352 0.0138235 9.93832 0.000171988C12.2531 -0.0134796 14.5009 0.785946 16.2983 2.26209C18.0956 3.73823 19.3312 5.79966 19.7943 8.09474C19.8763 8.50523 19.9321 8.92047 20 9.33308V10.8652C19.9379 11.2445 19.8851 11.6259 19.8121 12.0031C19.4503 13.8749 18.6927 15.5919 17.7807 17.2439C16.4065 19.7316 14.7234 21.9986 12.859 24.1218C11.9908 25.1082 11.06 26.0411 10.1578 27ZM10.0012 14.7645C12.4826 14.7783 14.5647 12.691 14.5845 10.1683C14.6043 7.61398 12.5442 5.48757 10.0424 5.48018C8.82247 5.4747 7.65028 5.95968 6.78357 6.8285C5.91686 7.69732 5.42657 8.87887 5.42049 10.1134C5.4064 12.6556 7.47069 14.7508 10.0007 14.7645H10.0012Z" fill="#999999"/>
</svg>
