<svg width="11" height="6" viewBox="0 0 11 6" fill="none" xmlns="http://www.w3.org/2000/svg">
<path d="M10.9993 5.40962C10.9517 5.25384 10.8461 5.14066 10.7338 5.02831C9.12475 3.42118 7.51714 1.81308 5.91092 0.203999C5.77148 0.0640855 5.61409 -0.0374036 5.41536 0.0168915C5.29642 0.0506372 5.1877 0.113345 5.09891 0.199406C4.25363 1.03471 3.41211 1.87447 2.57435 2.71869C1.78001 3.5139 0.985251 4.30827 0.190073 5.10181C0.0439522 5.24799 -0.0370409 5.41297 0.0176502 5.62388C0.0380315 5.70587 0.0790208 5.7813 0.13673 5.84299C0.19444 5.90468 0.266953 5.95059 0.347386 5.97637C0.427819 6.00214 0.513503 6.00693 0.596302 5.99026C0.679102 5.9736 0.756269 5.93604 0.820481 5.88115C0.855967 5.8515 0.888949 5.81809 0.92193 5.78551C2.41571 4.29143 3.9092 2.79707 5.40242 1.30243C5.43143 1.26809 5.45768 1.23149 5.48091 1.193C5.53393 1.24354 5.56441 1.27194 5.59488 1.30201C7.09367 2.80083 8.59232 4.30006 10.0908 5.79971C10.1864 5.89494 10.2875 5.97513 10.4277 5.9935C10.5382 6.01003 10.6511 5.9888 10.7481 5.93325C10.845 5.8777 10.9204 5.79107 10.9621 5.68736C10.9742 5.65813 10.9876 5.62973 11.0001 5.60133L10.9993 5.40962Z" fill="#E8815D"/>
</svg>
